<svg viewBox="0 0 24 24" xmlns="http://www.w3.org/2000/svg" role="img" aria-labelledby="tiktok-logo" height="24"><title id="tiktok-logo">TikTok</title><path d="M19.9926 7.5062c-.975 0-1.8765-.3415-2.5978-.9154-.8281-.6583-1.4258-1.6264-1.6361-2.7388-.0535-.2746-.0802-.5598-.0835-.852H12.887v8.0301l-.0033 4.397c0 1.1759-.7279 2.1722-1.733 2.5242-.2939.1021-.6077.1514-.935.1303-.4207-.0247-.8114-.1585-1.1553-.3732-.728-.4577-1.2188-1.2885-1.2321-2.2425-.02-1.4857 1.1186-2.7002 2.5277-2.7002.2771 0 .5442.0493.7947.1338V9.9212a5.071 5.071 0 0 0-.8047-.0634c-1.5427 0-2.9852.6759-4.017 1.894-.778.9188-1.2455 2.0947-1.319 3.3268-.0934 1.6159.4675 3.1543 1.556 4.2879a5.831 5.831 0 0 0 .5043.4647C8.0019 20.5881 9.1439 21 10.346 21c.2704 0 .5409-.0211.8047-.0634 1.1219-.176 2.157-.7181 2.9751-1.5701 1.0051-1.0456 1.5594-2.4361 1.5661-3.9147l-.0134-6.5692a6.8324 6.8324 0 0 0 1.5661.9611c.8748.3908 1.8031.5844 2.7547.5844V7.5027c.0034.0035-.0067.0035-.0067.0035Z" fill="#222"></path></svg>